<?xml version="1.0" encoding="utf-8"?>
<!-- Generator: Adobe Illustrator 18.1.1, SVG Export Plug-In . SVG Version: 6.00 Build 0)  -->
<!DOCTYPE svg PUBLIC "-//W3C//DTD SVG 1.1//EN" "http://www.w3.org/Graphics/SVG/1.1/DTD/svg11.dtd">
<svg version="1.1" id="Layer_1" xmlns="http://www.w3.org/2000/svg" xmlns:xlink="http://www.w3.org/1999/xlink" x="0px" y="0px"
	 viewBox="0 0 218.7 56.2" enable-background="new 0 0 218.7 56.2" xml:space="preserve">
<g>
	<path d="M0,12.5V0h6.2v12.5H0z M6.2,43.8V12.5h6.2v31.2H6.2z M12.5,56.2V43.8h6.2v12.5H12.5z M18.8,43.8V12.5H25v31.2H18.8z
		 M25,12.5V0h6.2v12.5H25z"/>
	<path d="M37.5,56.2V0h25v6.2H43.8V25h18.8v6.2H43.8V50h18.8v6.2H37.5z"/>
	<path d="M68.8,18.8V6.2H75v12.5H68.8z M68.8,50V37.5H75V50H68.8z M75,6.2V0h18.8v6.2H75z M75,25v-6.2h6.2V25H75z M75,56.2V50h18.8
		v6.2H75z M81.2,31.2V25h12.5v6.2H81.2z M93.8,12.5V6.2h6.2v6.2H93.8z M93.8,50V31.2h6.2V50H93.8z"/>
	<path d="M118.8,56.2v-50h-12.5V0h31.2v6.2H125v50H118.8z"/>
	<path d="M143.8,56.2V0h6.2v56.2H143.8z"/>
	<path d="M156.2,50V12.5h6.2V50H156.2z M162.5,12.5V6.2h6.2v6.2H162.5z M162.5,56.2V50h18.8V37.5H175v-6.2h12.5v25H162.5z
		 M168.8,6.2V0h12.5v6.2H168.8z M181.2,18.8V6.2h6.2v12.5H181.2z"/>
	<path d="M193.8,56.2V0h25v6.2H200V25h18.8v6.2H200V50h18.8v6.2H193.8z"/>
</g>
</svg>
